<svg xmlns="http://www.w3.org/2000/svg" xmlns:xlink="http://www.w3.org/1999/xlink" width="80.841" height="86.224" viewBox="0 0 80.841 86.224">
  <defs>
    <linearGradient id="linear-gradient" x1="0.5" x2="0.5" y2="1" gradientUnits="objectBoundingBox">
      <stop offset="0.01" stop-color="#f9b233"/>
      <stop offset="1" stop-color="#e94e1b"/>
    </linearGradient>
    <linearGradient id="linear-gradient-2" x1="0.046" y1="0.312" x2="0.961" y2="1.066" xlink:href="#linear-gradient"/>
  </defs>
  <g id="Group_4507" data-name="Group 4507" transform="translate(-58.427 -94.976)">
    <g id="Group_4505" data-name="Group 4505" transform="translate(58.427 94.976)">
      <g id="Group_4476" data-name="Group 4476" transform="translate(0)">
        <path id="Path_25585" data-name="Path 25585" d="M1528.186,3366.736h-1.122c0-8.745-4.756-15.861-10.6-15.861s-10.6,7.116-10.6,15.861h-1.122c0-9.364,5.259-16.983,11.723-16.983S1528.186,3357.372,1528.186,3366.736Z" transform="translate(-1491.861 -3349.753)"/>
        <path id="Path_25586" data-name="Path 25586" d="M1373.773,3624.5H1312.79l4.3-72.5h52.384Z" transform="translate(-1312.79 -3538.426)" fill="#fe6c0c"/>
        <g id="Group_4475" data-name="Group 4475" transform="translate(18.125 15.998)">
          <circle id="Ellipse_149" data-name="Ellipse 149" cx="1.216" cy="1.216" r="1.216" transform="translate(0 0)"/>
          <circle id="Ellipse_150" data-name="Ellipse 150" cx="1.216" cy="1.216" r="1.216" transform="translate(22.3)"/>
        </g>
        <path id="Path_25587" data-name="Path 25587" d="M1614.137,3366.736h-1.122c0-8.745-4.755-15.861-10.6-15.861s-10.6,7.116-10.6,15.861h-1.122c0-9.364,5.259-16.983,11.723-16.983S1614.137,3357.372,1614.137,3366.736Z" transform="translate(-1572.045 -3349.753)"/>
        <path id="Path_25588" data-name="Path 25588" d="M1323,3547.874l6.709,72.812-9.905-6.751-7.012,6.72,4.3-72.5Z" transform="translate(-1312.79 -3534.58)" fill="url(#linear-gradient)"/>
      </g>
      <g id="Group_4506" data-name="Group 4506" transform="translate(19.699)">
        <path id="Path_25585-2" data-name="Path 25585" d="M1528.186,3366.736h-1.122c0-8.745-4.756-15.861-10.6-15.861s-10.6,7.116-10.6,15.861h-1.122c0-9.364,5.259-16.983,11.723-16.983S1528.186,3357.372,1528.186,3366.736Z" transform="translate(-1491.861 -3349.753)"/>
        <path id="Path_25586-2" data-name="Path 25586" d="M1373.773,3624.5H1312.79l4.3-72.5h52.384Z" transform="translate(-1312.79 -3538.426)" fill="#fff" stroke="#bcbcbc" stroke-width="0.3"/>
        <g id="Group_4475-2" data-name="Group 4475" transform="translate(18.125 15.998)">
          <circle id="Ellipse_149-2" data-name="Ellipse 149" cx="1.216" cy="1.216" r="1.216" transform="translate(0 0)"/>
          <circle id="Ellipse_150-2" data-name="Ellipse 150" cx="1.216" cy="1.216" r="1.216" transform="translate(22.3)"/>
        </g>
        <path id="Path_25587-2" data-name="Path 25587" d="M1614.137,3366.736h-1.122c0-8.745-4.755-15.861-10.6-15.861s-10.6,7.116-10.6,15.861h-1.122c0-9.364,5.259-16.983,11.723-16.983S1614.137,3357.372,1614.137,3366.736Z" transform="translate(-1572.045 -3349.753)"/>
        <path id="Path_25588-2" data-name="Path 25588" d="M1323,3547.874l6.709,72.812-9.905-6.751-7.012,6.72,4.3-72.5Z" transform="translate(-1312.79 -3534.58)" fill="#e8e8dd"/>
      </g>
      <g id="Group_4418" data-name="Group 4418" transform="translate(45.469 34.162)">
        <path id="_Compound_Path_" data-name="&lt;Compound Path&gt;" d="M25.817,5.035a3.584,3.584,0,0,0-.648-3.158A3.933,3.933,0,0,0,22.092.5h-.081c-2.267,0-4.859,2.267-8.017,7.045C10.755,2.767,8.244.5,5.977.5H5.9A4.078,4.078,0,0,0,2.819,1.876a3.584,3.584,0,0,0-.648,3.158c1.134,5.183,10.608,5.345,11.742,5.345h.243a8.584,8.584,0,1,1,0,17.167A8.8,8.8,0,0,1,5.41,18.882a8.41,8.41,0,0,1,2.753-6.235,1.053,1.053,0,0,0,.081-1.539,1.134,1.134,0,0,0-1.539-.081A10.689,10.689,0,0,0,3.224,18.8,10.837,10.837,0,0,0,14.156,29.49,10.837,10.837,0,0,0,25.088,18.8a10.823,10.823,0,0,0-5.345-9.232C22.415,9,25.25,7.707,25.817,5.035ZM4.357,4.549a1.554,1.554,0,0,1,.162-1.377A1.954,1.954,0,0,1,5.9,2.605h0c.648,0,2.429.567,5.83,5.426C8.892,7.707,4.843,6.816,4.357,4.549Zm19.354,0c-.486,2.267-4.535,3.158-7.45,3.482,3.4-4.859,5.183-5.426,5.83-5.426h0a1.814,1.814,0,0,1,1.377.567,1.855,1.855,0,0,1,.243,1.377Z" transform="translate(-2.046 -0.499)" fill="url(#linear-gradient-2)"/>
      </g>
    </g>
  </g>
</svg>
