<svg id="vector" xmlns="http://www.w3.org/2000/svg" width="97.246" height="96.117" viewBox="0 0 97.246 96.117"><defs><linearGradient gradientUnits="userSpaceOnUse" x1="48.627" y1="51.694" x2="48.627" y2="85.086" id="gradient_0"><stop offset="0" stop-color="#1BB407FF"/><stop offset="1" stop-color="#179B06FF"/></linearGradient><linearGradient gradientUnits="userSpaceOnUse" x1="64.702" y1="-0.044" x2="64.702" y2="55.219" id="gradient_1"><stop offset="0" stop-color="#1BB407FF"/><stop offset="1" stop-color="#179B06FF"/></linearGradient><linearGradient gradientUnits="userSpaceOnUse" x1="48.626" y1="44.2" x2="48.626" y2="49.296" id="gradient_2"><stop offset="0" stop-color="#1BB407FF"/><stop offset="1" stop-color="#179B06FF"/></linearGradient></defs><path fill="#f0bf6c" d="M56.906,25.71m-7.248,5.908a9.351,9.351 95.815,1 1,14.496 -11.816a9.351,9.351 95.815,1 1,-14.496 11.816" id="path_0"/><path fill="#adbf53" d="M74.054,37.515m-5.514,5.514a7.798,7.798 0,1 1,11.028 -11.028a7.798,7.798 90,1 1,-11.028 11.028" id="path_1"/><path fill="#e8916a" d="M25.821,43.877m-8.548,8.548a12.089,12.089 0,1 1,17.096 -17.096a12.089,12.089 90,1 1,-17.096 17.096" id="path_2"/><path fill="#7dd3e9" d="M46.426,40.134m-1.342,5.652a5.809,5.809 58.36,1 1,2.685 -11.304a5.809,5.809 58.36,1 1,-2.685 11.304" id="path_3"/><path fill="#87d38c" d="M38.68,27.179m-6.479,0a6.479,6.479 0,1 1,12.958 0a6.479,6.479 0,1 1,-12.958 0" id="path_4"/><path fill="#7dd3e9" d="M22.005,23.476m-6.242,0a6.242,6.242 0,1 1,12.484 0a6.242,6.242 0,1 1,-12.484 0" id="path_5"/><path fill="#e47790" d="M44.338,11.274m-1.363,5.49a5.657,5.657 58.939,1 1,2.725 -10.98a5.657,5.657 58.939,1 1,-2.725 10.98" id="path_6"/><path fill="#f0bf6c" d="M32.2,13.821m-4.007,0a4.007,4.007 0,1 1,8.014 0a4.007,4.007 0,1 1,-8.014 0" id="path_7"/><path fill="#e47790" d="M12.123,31.821m-3.282,3.282a4.642,4.642 90,1 1,6.565 -6.565a4.642,4.642 90,1 1,-6.565 6.565" id="path_8"/><path fill="#87d38c" d="M12.106,42.549a3.782,3.782 0,1 1,-3.782 -3.782A3.782,3.782 0,0 1,12.106 42.549Z" id="path_9"/><path fill="#7dd3e9" d="M74.054,20.404m-2.803,6.614a7.184,7.184 67.968,1 1,5.607 -13.229a7.184,7.184 67.968,1 1,-5.607 13.229" id="path_10"/><path fill="#87d38c" d="M88.786,28.677a4.37,4.37 0,1 1,-4.37 -4.37A4.369,4.369 0,0 1,88.786 28.677Z" id="path_11"/><path fill="#e47790" d="M88.198,40.396m-0.607,3.733a3.782,3.782 54.243,1 1,1.215 -7.466a3.782,3.782 54.243,1 1,-1.215 7.466" id="path_12"/><path fill="#adbf53" d="M64.042,11.645m-4.38,0a4.38,4.38 0,1 1,8.76 0a4.38,4.38 0,1 1,-8.76 0" id="path_13"/><path fill="#e8916a" d="M57.345,10.323a2.19,2.19 0,1 1,-2.19 -2.19A2.19,2.19 0,0 1,57.345 10.323Z" id="path_14"/><path fill="#179b06" d="M4.943,41.806L92.3,41.806a4.943,4.943 0,0 1,0 9.886L4.943,51.692A4.943,4.943 0,0 1,-0 46.749L-0,46.749A4.943,4.943 0,0 1,4.943 41.806Z" id="path_15"/><path fill="#179b06" d="M24.388,96.117h48.469a13.625,13.625 0,0 0,13.376 -11.033L11.012,85.084A13.625,13.625 0,0 0,24.388 96.117Z" id="path_16"/><path fill="url(#gradient_0)" d="M4.545,51.694l6.471,33.392h75.221l6.471,-33.392ZM12.457,64.276 L11.339,57.176h10.53a4.408,4.408 0,0 1,4.388 3.987l0.657,6.831h-10.1A4.408,4.408 0,0 1,12.453 64.274ZM19,81.893a4.408,4.408 0,0 1,-4.354 -3.723l-0.91,-5.777h9.6a4.408,4.408 0,0 1,4.388 3.986l0.53,5.514ZM31.345,57.178h10.177a4.409,4.409 0,0 1,4.408 4.357l0.075,6.46h-9.773a4.408,4.408 0,0 1,-4.4 -4.088ZM37.245,81.89a4.409,4.409 0,0 1,-4.4 -4.088l-0.395,-5.412h9.244a4.408,4.408 0,0 1,4.408 4.357l0.06,5.143ZM64.387,77.802a4.409,4.409 0,0 1,-4.4 4.088h-8.919l0.06,-5.143A4.408,4.408 0,0 1,55.545 72.394h9.244ZM65.401,63.908a4.408,4.408 0,0 1,-4.4 4.088h-9.773l0.075,-6.46a4.409,4.409 0,0 1,4.408 -4.357h10.177ZM82.601,78.167A4.408,4.408 0,0 1,78.245 81.894h-9.25l0.53,-5.514a4.408,4.408 0,0 1,4.388 -3.986h9.6ZM84.79,64.273A4.408,4.408 0,0 1,80.438 67.994h-10.1l0.657,-6.831a4.408,4.408 0,0 1,4.388 -3.987h10.53Z" id="path_17"/><path fill="url(#gradient_1)" d="M41.273,47.818l39.283,-46.815a2.8,2.8 0,0 1,3.952 -0.346l3.276,2.748a2.805,2.805 0,0 1,0.346 3.952l-39.283,46.815a2.8,2.8 0,0 1,-3.952 0.346l-3.276,-2.748A2.805,2.805 0,0 1,41.273 47.818Z" id="path_18"/><path fill="url(#gradient_2)" d="M50.543,48.359a2.5,2.5 0,1 1,-0.309 -3.529A2.5,2.5 0,0 1,50.543 48.359Z" id="path_19"/></svg>